<?xml version="1.0" encoding="UTF-8"?>
<svg xmlns="http://www.w3.org/2000/svg" version="1.1" viewBox="0 0 1920 1080">
  <!-- Generator: Adobe Illustrator 30.3.0, SVG Export Plug-In . SVG Version: 2.1.3 Build 182)  -->
  <defs>
    <style>
      .st0 {
        fill: #fff;
      }
    </style>
  </defs>
  <g id="Layer_1">
    <g>
      <path class="st0" d="M1063.3,922.8c0,25.5-21.3,41.6-41.6,40.1-23.9-1.7-37.2-20.3-37.2-44.2l.3-757.7c0-14.1,3.4-24.9,11.8-32.8,9.6-8.9,22-12.6,36-10.7,18.2,2.4,30.5,18.9,30.5,38.2l.5,315.8-.3,451.3h0Z"/>
      <g>
        <path class="st0" d="M1191.7,746c0,23.9-19.9,39.9-38.7,39.7-19.5-.3-39.1-16.1-39.1-38.3v-407.4c0-15.9,3.4-26.5,13.9-36.1,9.7-8.9,23.7-13.2,38-8.1,14.1,5,26.2,19.9,26.2,36.7l-.2,413.6h-.1Z"/>
        <path class="st0" d="M1289.2,674.5c-23.8,5.5-41.8-10.9-47.4-32.9l.8-206c0-20.5,23.9-32.1,39.5-32,18.6.2,37.3,15.5,37.3,36.6l.6,195.1c0,17.7-12.8,35-30.8,39.1h0Z"/>
      </g>
    </g>
    <g>
      <path class="st0" d="M751.6,832.4c-15.8-7.5-22.2-23.6-22.2-40.6v-508.5c0-14.1,10.5-27.3,18.9-32.6,12.3-7.8,27.3-8.1,39.5.4,8.2,5.7,19.7,18.3,19.7,30.6l.2,514.7c0,13.4-8.7,25.3-15.8,31.1-11.4,9.3-27,11.2-40.3,4.9h0Z"/>
      <path class="st0" d="M935.2,666.6c0,21.9-16.7,37.8-34.4,40.7-17.4,2.8-43-10.6-43-32l-.6-266c0-14.9,9.4-27.8,19.1-33.5,13.2-7.7,29.6-6.9,40.7,1.5,11.8,8.9,18.4,21.7,18.4,36.9l-.2,252.3h0Z"/>
      <path class="st0" d="M679.1,643.1c-7.9,20.3-21.7,32.8-41.5,31.9-15.2-.7-35.5-14.6-36.1-34.4-2-67.6-2-134.5-.3-202.3.5-19.5,20.8-33.6,36.9-34.5,16.3-.9,40.1,12.6,40.2,33.3l.8,206.1h0Z"/>
    </g>
  </g>
</svg>